<mxfile host="app.diagrams.net" modified="2022-07-06T13:41:29.813Z" agent="5.0 (X11; Linux x86_64) AppleWebKit/537.36 (KHTML, like Gecko) Chrome/103.0.5060.53 Safari/537.36" etag="eLHeLVZW69LvCnPUOL_u" version="20.0.4" type="github">
  <diagram id="gOPD-dyYD7wM6eBOHagp" name="Page-1">
    <mxGraphModel dx="462" dy="792" grid="1" gridSize="10" guides="1" tooltips="1" connect="1" arrows="1" fold="1" page="1" pageScale="1" pageWidth="850" pageHeight="1100" math="0" shadow="0">
      <root>
        <mxCell id="0" />
        <mxCell id="1" parent="0" />
        <mxCell id="58vKS-DSGTSKR6i5wqaA-5" value="" style="edgeStyle=orthogonalEdgeStyle;rounded=0;orthogonalLoop=1;jettySize=auto;html=1;" edge="1" parent="1" source="58vKS-DSGTSKR6i5wqaA-1" target="58vKS-DSGTSKR6i5wqaA-2">
          <mxGeometry relative="1" as="geometry" />
        </mxCell>
        <mxCell id="58vKS-DSGTSKR6i5wqaA-1" value="Why does graphql exist ?&amp;nbsp;" style="rounded=0;whiteSpace=wrap;html=1;" vertex="1" parent="1">
          <mxGeometry y="60" width="120" height="60" as="geometry" />
        </mxCell>
        <mxCell id="58vKS-DSGTSKR6i5wqaA-6" value="" style="edgeStyle=orthogonalEdgeStyle;rounded=0;orthogonalLoop=1;jettySize=auto;html=1;" edge="1" parent="1" source="58vKS-DSGTSKR6i5wqaA-2" target="58vKS-DSGTSKR6i5wqaA-3">
          <mxGeometry relative="1" as="geometry" />
        </mxCell>
        <mxCell id="58vKS-DSGTSKR6i5wqaA-2" value="what is graphql ?&amp;nbsp;&lt;br&gt;" style="rounded=0;whiteSpace=wrap;html=1;" vertex="1" parent="1">
          <mxGeometry y="150" width="120" height="60" as="geometry" />
        </mxCell>
        <mxCell id="58vKS-DSGTSKR6i5wqaA-3" value="Why do we use graphql ?&amp;nbsp;" style="rounded=0;whiteSpace=wrap;html=1;" vertex="1" parent="1">
          <mxGeometry y="240" width="120" height="60" as="geometry" />
        </mxCell>
        <mxCell id="58vKS-DSGTSKR6i5wqaA-10" value="&lt;b&gt;RESTFUL CONVENTIONS&lt;/b&gt;&lt;br&gt;/api/v1/name POST //create a record&lt;br&gt;/name GET // fetch all record&lt;br&gt;/name/:id GET // fetch record with given id&amp;nbsp;&lt;br&gt;/name/:id PUT update record with given id&amp;nbsp;&lt;br&gt;/name/:id DELETE delete record with given id&amp;nbsp;&lt;br&gt;&lt;b&gt;&lt;br&gt;SHORTCOMINGS&lt;br&gt;&lt;/b&gt;/users/23/post GET // fetch post created by user 23&lt;br&gt;/user/23/post/13 DELETE delete post 13 created by user 23&lt;br&gt;&lt;br&gt;NOTE: nested routes&lt;br&gt;&lt;br&gt;url conventions for nested resources &lt;br&gt;api calls&amp;nbsp;&lt;br&gt;too much data than what&#39;s currently required&amp;nbsp;" style="rounded=0;whiteSpace=wrap;html=1;fillColor=#fff2cc;strokeColor=#d6b656;" vertex="1" parent="1">
          <mxGeometry x="260" y="60" width="380" height="200" as="geometry" />
        </mxCell>
        <mxCell id="58vKS-DSGTSKR6i5wqaA-37" value="" style="edgeStyle=orthogonalEdgeStyle;rounded=0;orthogonalLoop=1;jettySize=auto;html=1;" edge="1" parent="1" source="58vKS-DSGTSKR6i5wqaA-32" target="58vKS-DSGTSKR6i5wqaA-33">
          <mxGeometry relative="1" as="geometry" />
        </mxCell>
        <mxCell id="58vKS-DSGTSKR6i5wqaA-32" value="express/ graphql server&amp;nbsp;&lt;br&gt;" style="rounded=0;whiteSpace=wrap;html=1;" vertex="1" parent="1">
          <mxGeometry x="70" y="480" width="180" height="60" as="geometry" />
        </mxCell>
        <mxCell id="58vKS-DSGTSKR6i5wqaA-33" value="datastore" style="rounded=0;whiteSpace=wrap;html=1;" vertex="1" parent="1">
          <mxGeometry x="100" y="580" width="120" height="60" as="geometry" />
        </mxCell>
        <mxCell id="58vKS-DSGTSKR6i5wqaA-38" value="" style="edgeStyle=orthogonalEdgeStyle;rounded=0;orthogonalLoop=1;jettySize=auto;html=1;" edge="1" parent="1" source="58vKS-DSGTSKR6i5wqaA-34" target="58vKS-DSGTSKR6i5wqaA-32">
          <mxGeometry relative="1" as="geometry" />
        </mxCell>
        <mxCell id="58vKS-DSGTSKR6i5wqaA-34" value="application (say : user datastore)" style="rounded=0;whiteSpace=wrap;html=1;" vertex="1" parent="1">
          <mxGeometry x="75" y="390" width="170" height="60" as="geometry" />
        </mxCell>
        <mxCell id="58vKS-DSGTSKR6i5wqaA-39" value="fig: application architecture" style="text;html=1;strokeColor=none;fillColor=none;align=center;verticalAlign=middle;whiteSpace=wrap;rounded=0;" vertex="1" parent="1">
          <mxGeometry x="85" y="660" width="150" height="30" as="geometry" />
        </mxCell>
        <mxCell id="58vKS-DSGTSKR6i5wqaA-40" value="&lt;br&gt;&lt;br&gt;&lt;br&gt;EXPRESS&lt;br&gt;server" style="rounded=0;whiteSpace=wrap;html=1;" vertex="1" parent="1">
          <mxGeometry x="690" y="380" width="150" height="160" as="geometry" />
        </mxCell>
        <mxCell id="58vKS-DSGTSKR6i5wqaA-42" value="application" style="rounded=0;whiteSpace=wrap;html=1;" vertex="1" parent="1">
          <mxGeometry x="460" y="455" width="120" height="60" as="geometry" />
        </mxCell>
        <mxCell id="58vKS-DSGTSKR6i5wqaA-44" value="" style="endArrow=classic;html=1;rounded=0;entryX=0;entryY=0.5;entryDx=0;entryDy=0;startArrow=none;" edge="1" parent="1" source="58vKS-DSGTSKR6i5wqaA-47" target="58vKS-DSGTSKR6i5wqaA-40">
          <mxGeometry width="50" height="50" relative="1" as="geometry">
            <mxPoint x="610" y="530" as="sourcePoint" />
            <mxPoint x="660" y="480" as="targetPoint" />
          </mxGeometry>
        </mxCell>
        <mxCell id="58vKS-DSGTSKR6i5wqaA-45" value="" style="endArrow=classic;html=1;rounded=0;entryX=1;entryY=0.75;entryDx=0;entryDy=0;exitX=0;exitY=0.75;exitDx=0;exitDy=0;startArrow=none;" edge="1" parent="1" source="58vKS-DSGTSKR6i5wqaA-48" target="58vKS-DSGTSKR6i5wqaA-42">
          <mxGeometry width="50" height="50" relative="1" as="geometry">
            <mxPoint x="680" y="530" as="sourcePoint" />
            <mxPoint x="730" y="480" as="targetPoint" />
          </mxGeometry>
        </mxCell>
        <mxCell id="58vKS-DSGTSKR6i5wqaA-51" style="edgeStyle=orthogonalEdgeStyle;rounded=0;orthogonalLoop=1;jettySize=auto;html=1;endArrow=none;endFill=0;" edge="1" parent="1" source="58vKS-DSGTSKR6i5wqaA-49">
          <mxGeometry relative="1" as="geometry">
            <mxPoint x="520" y="420" as="targetPoint" />
            <Array as="points">
              <mxPoint x="520" y="424" />
            </Array>
          </mxGeometry>
        </mxCell>
        <mxCell id="58vKS-DSGTSKR6i5wqaA-57" value="NO" style="edgeLabel;html=1;align=center;verticalAlign=middle;resizable=0;points=[];" vertex="1" connectable="0" parent="58vKS-DSGTSKR6i5wqaA-51">
          <mxGeometry x="-0.3232" y="-4" relative="1" as="geometry">
            <mxPoint x="1" as="offset" />
          </mxGeometry>
        </mxCell>
        <mxCell id="58vKS-DSGTSKR6i5wqaA-54" style="edgeStyle=orthogonalEdgeStyle;rounded=0;orthogonalLoop=1;jettySize=auto;html=1;" edge="1" parent="1" source="58vKS-DSGTSKR6i5wqaA-49" target="58vKS-DSGTSKR6i5wqaA-52">
          <mxGeometry relative="1" as="geometry" />
        </mxCell>
        <mxCell id="58vKS-DSGTSKR6i5wqaA-49" value="graphql request?&amp;nbsp;" style="html=1;whiteSpace=wrap;aspect=fixed;shape=isoRectangle;" vertex="1" parent="1">
          <mxGeometry x="727.5" y="410" width="87.5" height="52.5" as="geometry" />
        </mxCell>
        <mxCell id="58vKS-DSGTSKR6i5wqaA-53" style="edgeStyle=orthogonalEdgeStyle;rounded=0;orthogonalLoop=1;jettySize=auto;html=1;" edge="1" parent="1" source="58vKS-DSGTSKR6i5wqaA-52" target="58vKS-DSGTSKR6i5wqaA-42">
          <mxGeometry relative="1" as="geometry">
            <mxPoint x="1080" y="490" as="targetPoint" />
          </mxGeometry>
        </mxCell>
        <mxCell id="58vKS-DSGTSKR6i5wqaA-52" value="graphql" style="rounded=0;whiteSpace=wrap;html=1;" vertex="1" parent="1">
          <mxGeometry x="711.25" y="280" width="120" height="60" as="geometry" />
        </mxCell>
        <mxCell id="58vKS-DSGTSKR6i5wqaA-55" value="Text" style="text;html=1;strokeColor=none;fillColor=none;align=center;verticalAlign=middle;whiteSpace=wrap;rounded=0;" vertex="1" parent="1">
          <mxGeometry x="670" y="480" width="60" height="30" as="geometry" />
        </mxCell>
        <mxCell id="58vKS-DSGTSKR6i5wqaA-56" value="YES" style="text;html=1;align=center;verticalAlign=middle;resizable=0;points=[];autosize=1;strokeColor=none;fillColor=none;" vertex="1" parent="1">
          <mxGeometry x="765" y="345" width="50" height="30" as="geometry" />
        </mxCell>
        <mxCell id="58vKS-DSGTSKR6i5wqaA-47" value="request" style="text;html=1;align=center;verticalAlign=middle;resizable=0;points=[];autosize=1;strokeColor=none;fillColor=none;" vertex="1" parent="1">
          <mxGeometry x="605" y="455" width="60" height="30" as="geometry" />
        </mxCell>
        <mxCell id="58vKS-DSGTSKR6i5wqaA-58" value="" style="endArrow=none;html=1;rounded=0;entryX=0;entryY=0.5;entryDx=0;entryDy=0;" edge="1" parent="1" source="58vKS-DSGTSKR6i5wqaA-42" target="58vKS-DSGTSKR6i5wqaA-47">
          <mxGeometry width="50" height="50" relative="1" as="geometry">
            <mxPoint x="580" y="476.17647058823525" as="sourcePoint" />
            <mxPoint x="690" y="460" as="targetPoint" />
          </mxGeometry>
        </mxCell>
        <mxCell id="58vKS-DSGTSKR6i5wqaA-48" value="response" style="text;html=1;align=center;verticalAlign=middle;resizable=0;points=[];autosize=1;strokeColor=none;fillColor=none;" vertex="1" parent="1">
          <mxGeometry x="605" y="485" width="70" height="30" as="geometry" />
        </mxCell>
        <mxCell id="58vKS-DSGTSKR6i5wqaA-59" value="" style="endArrow=none;html=1;rounded=0;entryX=1;entryY=0.75;entryDx=0;entryDy=0;exitX=0;exitY=0.75;exitDx=0;exitDy=0;" edge="1" parent="1" source="58vKS-DSGTSKR6i5wqaA-40" target="58vKS-DSGTSKR6i5wqaA-48">
          <mxGeometry width="50" height="50" relative="1" as="geometry">
            <mxPoint x="690" y="500" as="sourcePoint" />
            <mxPoint x="580" y="500" as="targetPoint" />
          </mxGeometry>
        </mxCell>
      </root>
    </mxGraphModel>
  </diagram>
</mxfile>
